<?xml version="1.0" standalone="no"?>
<!DOCTYPE svg PUBLIC "-//W3C//DTD SVG 20010904//EN"
 "http://www.w3.org/TR/2001/REC-SVG-20010904/DTD/svg10.dtd">
<svg version="1.0" xmlns="http://www.w3.org/2000/svg"
 width="2000.000000pt" height="2000.000000pt" viewBox="0 0 2000.000000 2000.000000"
 preserveAspectRatio="xMidYMid meet">
<metadata>
Created by potrace 1.11, written by Peter Selinger 2001-2013
</metadata>
<g transform="translate(0.000000,2000.000000) scale(0.100000,-0.100000)"
fill="#000000" stroke="none">
<path d="M2286 17801 c-4 -6 -131 -513 -151 -601 -10 -42 -46 -190 -56 -224
-6 -22 -12 -46 -14 -55 -2 -9 -18 -74 -35 -146 -88 -363 -177 -746 -187 -800
-2 -16 -13 -67 -24 -112 -10 -44 -21 -96 -24 -115 -3 -18 -11 -53 -16 -78 -6
-25 -12 -54 -15 -65 -2 -11 -10 -51 -18 -90 -9 -38 -18 -81 -20 -95 -2 -14
-14 -74 -26 -135 -12 -60 -24 -121 -26 -135 -3 -14 -13 -70 -24 -125 -16 -87
-39 -209 -54 -296 l-4 -25 316 0 316 1 69 110 c58 93 159 238 177 255 3 3 27
32 54 65 72 88 249 262 341 334 44 34 87 68 96 76 100 80 377 231 527 285 114
42 294 87 379 96 37 4 1151 8 2476 8 l2407 1 -3 -6140 c-2 -3377 -6 -6162 -10
-6190 -3 -27 -8 -88 -11 -135 -3 -47 -8 -107 -11 -135 -12 -112 -16 -141 -20
-165 -2 -14 -6 -41 -9 -60 -23 -158 -83 -342 -138 -424 -36 -53 -118 -137
-188 -194 -113 -91 -125 -98 -370 -225 -85 -44 -160 -84 -167 -89 -16 -12 -15
-618 1 -618 15 -1 4579 -1 4634 0 l42 0 0 313 0 312 -187 94 c-244 123 -338
185 -449 295 -75 75 -98 106 -132 176 -37 76 -75 194 -88 268 -3 15 -7 34 -9
42 -5 16 -7 33 -24 160 -13 99 -19 156 -26 265 -3 50 -8 124 -12 165 -8 115
-11 12284 -3 12290 13 8 4809 4 4875 -4 167 -21 353 -80 540 -170 161 -77 369
-211 480 -307 109 -95 224 -208 300 -294 59 -68 197 -257 258 -355 l66 -105
320 -1 c223 0 321 3 321 10 0 6 -4 27 -9 46 -5 19 -12 53 -15 75 -3 22 -8 51
-11 65 -14 68 -25 128 -30 160 -3 19 -24 125 -46 235 -45 224 -47 236 -53 268
-2 12 -16 74 -30 137 -14 63 -27 127 -30 143 -3 15 -7 35 -10 45 -3 9 -7 28
-10 42 -4 22 -69 300 -82 355 -3 11 -7 31 -10 45 -3 14 -87 352 -186 753
l-182 727 -7867 0 c-4420 0 -7870 -4 -7873 -9z"/>
</g>
</svg>
